<svg width="36" height="29" viewBox="0 0 36 29" fill="none" xmlns="http://www.w3.org/2000/svg">
<path fill-rule="evenodd" clip-rule="evenodd" d="M17.6026 5.1492C17.6026 7.44206 15.7439 9.30078 13.4511 9.30078C11.1582 9.30078 9.29947 7.44206 9.29947 5.1492C9.29947 2.85635 11.1582 0.997627 13.4511 0.997627C15.7439 0.997627 17.6026 2.85635 17.6026 5.1492ZM17.6026 14.7808C17.6026 17.0737 15.7439 18.9324 13.4511 18.9324C11.1582 18.9324 9.29947 17.0737 9.29947 14.7808C9.29947 12.488 11.1582 10.6293 13.4511 10.6293C15.7439 10.6293 17.6026 12.488 17.6026 14.7808ZM4.15158 18.9324C6.44443 18.9324 8.30315 17.0737 8.30315 14.7808C8.30315 12.488 6.44443 10.6293 4.15158 10.6293C1.85872 10.6293 0 12.488 0 14.7808C0 17.0737 1.85872 18.9324 4.15158 18.9324ZM26.9023 14.7808C26.9023 17.0737 25.0435 18.9324 22.7507 18.9324C20.4578 18.9324 18.5991 17.0737 18.5991 14.7808C18.5991 12.488 20.4578 10.6293 22.7507 10.6293C25.0435 10.6293 26.9023 12.488 26.9023 14.7808ZM31.0539 28.564C33.3467 28.564 35.2054 26.7053 35.2054 24.4125C35.2054 22.1196 33.3467 20.2609 31.0539 20.2609C28.761 20.2609 26.9023 22.1196 26.9023 24.4125C26.9023 26.7053 28.761 28.564 31.0539 28.564ZM18.5991 5.1492C18.5991 2.85635 20.4578 0.997627 22.7507 0.997627H31.0538C33.3467 0.997627 35.2054 2.85635 35.2054 5.1492C35.2054 7.44206 33.3467 9.30078 31.0538 9.30078H22.7507C20.4578 9.30078 18.5991 7.44206 18.5991 5.1492ZM13.4511 20.2609C11.1582 20.2609 9.29947 22.1196 9.29947 24.4125C9.29947 26.7053 11.1582 28.564 13.4511 28.564H21.7542C24.0471 28.564 25.9058 26.7053 25.9058 24.4125C25.9058 22.1196 24.0471 20.2609 21.7542 20.2609H13.4511Z" fill="url(#paint0_linear_1635_201)"/>
<defs>
<linearGradient id="paint0_linear_1635_201" x1="-0.0172639" y1="17.4816" x2="33.2112" y2="17.4816" gradientUnits="userSpaceOnUse">
<stop stop-color="#F059FC"/>
<stop offset="1" stop-color="#16BBFD"/>
</linearGradient>
</defs>
</svg>
